<svg width="380.7" height="64.4" viewBox="0 0 380.7 64.4" xmlns="http://www.w3.org/2000/svg"><g id="svgGroup" stroke-linecap="round" fill-rule="evenodd" font-size="9pt" stroke="#000" stroke-width="0" fill="#00000" style="stroke:#000;stroke-width:0;fill:#312F34"><path d="M 82.8 64.4 L 71.9 64.4 L 71.9 0 L 81.5 0 L 115.1 47.4 L 115.1 0 L 125.9 0 L 125.9 64.4 L 116.3 64.4 L 82.8 17.1 L 82.8 64.4 Z M 206.3 64.4 L 195.4 64.4 L 195.4 0 L 206.3 0 L 206.3 28 L 237.3 28 L 237.3 0 L 248.2 0 L 248.2 64.4 L 237.3 64.4 L 237.3 36.4 L 206.3 36.4 L 206.3 64.4 Z M 11.3 64.4 L 0 64.4 L 24.6 0 L 36.8 0 L 61.2 64.4 L 50 64.4 L 43.6 47.8 L 17.7 47.8 L 11.3 64.4 Z M 166.2 64.4 L 155.3 64.4 L 155.3 8.5 L 134.7 8.5 L 134.7 0 L 186.7 0 L 186.7 8.5 L 166.2 8.5 L 166.2 64.4 Z M 328.2 64.4 L 284.3 64.4 L 284.3 0 L 295.2 0 L 295.2 56 L 328.2 56 L 328.2 64.4 Z M 380.7 64.4 L 336.8 64.4 L 336.8 0 L 347.7 0 L 347.7 56 L 380.7 56 L 380.7 64.4 Z M 271.7 64.4 L 260.8 64.4 L 260.8 0 L 271.7 0 L 271.7 64.4 Z M 30.6 9.9 L 19.4 39.4 L 41.8 39.4 L 30.6 9.9 Z"/></g></svg>